<?xml version="1.0" encoding="UTF-8"?> <svg xmlns="http://www.w3.org/2000/svg" xmlns:xlink="http://www.w3.org/1999/xlink" width="150px" height="150px" viewBox="0 0 150 150" version="1.1"><title>Icon / Our Platform</title><g id="Icon-/-Our-Platform" stroke="none" stroke-width="1" fill="none" fill-rule="evenodd" stroke-linecap="round" stroke-linejoin="round"><g id="Group-61" transform="translate(4.000000, 22.000000)" stroke-width="3.30865116"><path d="M115.581395,43.3636364 C115.581395,48.3329148 111.516207,52.3636364 106.49872,52.3636364 C101.483793,52.3636364 97.4186047,48.3329148 97.4186047,43.3636364 C97.4186047,38.3943579 101.483793,34.3636364 106.49872,34.3636364 C111.516207,34.3636364 115.581395,38.3943579 115.581395,43.3636364 Z" id="Stroke-1" stroke="#FF9661"></path><path d="M62.744186,13.0909091 L130.44186,13.0909091 L62.744186,13.0909091 Z" id="Stroke-3" stroke="#4A5ECC"></path><path d="M139.051217,90 L2.94878262,90 C1.32038606,90 0,88.7039062 0,87.1054687 L0,2.89453125 C0,1.29609375 1.32038606,-7.10542736e-15 2.94878262,-7.10542736e-15 L139.051217,-7.10542736e-15 C140.679614,-7.10542736e-15 142,1.29609375 142,2.89453125 L142,87.1054687 C142,88.7039062 140.679614,90 139.051217,90 Z" id="Stroke-5" stroke="#4A5ECC"></path><path d="M0,75.2727273 L142,75.2727273 L0,75.2727273 Z" id="Stroke-7" stroke="#4A5ECC"></path><path d="M130.44186,13.0909091 L130.44186,62.1818182 L130.44186,13.0909091 Z" id="Stroke-9" stroke="#4A5ECC"></path><path d="M23.1162791,13.0909091 L31.372093,13.0909091 L23.1162791,13.0909091 Z" id="Stroke-11" stroke="#4A5ECC"></path><path d="M36.3255814,13.0909091 L42.9302326,13.0909091 L36.3255814,13.0909091 Z" id="Stroke-13" stroke="#4A5ECC"></path><path d="M47.8837209,13.0909091 L56.1395349,13.0909091 L47.8837209,13.0909091 Z" id="Stroke-15" stroke="#4A5ECC"></path><path d="M34.6744186,106.363636 L107.325581,106.363636 L34.6744186,106.363636 Z" id="Stroke-17" stroke="#4A5ECC"></path><path d="M52.8372093,90 L52.8372093,106.363636 L52.8372093,90 Z" id="Stroke-19" stroke="#4A5ECC"></path><path d="M89.1627907,90 L89.1627907,106.363636 L89.1627907,90 Z" id="Stroke-21" stroke="#4A5ECC"></path><path d="M115.581395,43.3636364 C115.581395,48.3329148 111.516207,52.3636364 106.49872,52.3636364 C101.483793,52.3636364 97.4186047,48.3329148 97.4186047,43.3636364 C97.4186047,38.3943579 101.483793,34.3636364 106.49872,34.3636364 C111.516207,34.3636364 115.581395,38.3943579 115.581395,43.3636364 Z" id="Stroke-23" stroke="#FF9661"></path><path d="M95.7674419,44.1818182 L90.8139535,44.1818182 L95.7674419,44.1818182 Z" id="Stroke-25" stroke="#FF9661"></path><path d="M120.752142,44.1818182 L115.798654,44.1818182 L120.752142,44.1818182 Z" id="Stroke-27" stroke="#FF9661"></path><path d="M99.0697674,49.0909091 L95.7674419,52.3636364 L99.0697674,49.0909091 Z" id="Stroke-29" stroke="#FF9661"></path><path d="M115.581395,32.7272727 L112.27907,36 L115.581395,32.7272727 Z" id="Stroke-31" stroke="#FF9661"></path><path d="M105.674419,52.3636364 L105.674419,57.2727273 L105.674419,52.3636364 Z" id="Stroke-33" stroke="#FF9661"></path><path d="M105.674419,29.4545455 L105.674419,34.3636364 L105.674419,29.4545455 Z" id="Stroke-35" stroke="#FF9661"></path><path d="M114.147491,49.0909091 L117.449816,52.3636364 L114.147491,49.0909091 Z" id="Stroke-37" stroke="#FF9661"></path><path d="M95.7674419,32.7272727 L99.0697674,36 L95.7674419,32.7272727 Z" id="Stroke-39" stroke="#FF9661"></path><path d="M36.3255814,43.3636364 C36.3255814,48.3329148 32.260393,52.3636364 27.245466,52.3636364 C22.2279791,52.3636364 18.1627907,48.3329148 18.1627907,43.3636364 C18.1627907,38.3943579 22.2279791,34.3636364 27.245466,34.3636364 C32.260393,34.3636364 36.3255814,38.3943579 36.3255814,43.3636364 Z" id="Stroke-41" stroke="#E7314E"></path><path d="M12.7747858,44.1818182 L17.7282742,44.1818182 L12.7747858,44.1818182 Z" id="Stroke-43" stroke="#E7314E"></path><path d="M37.9767442,44.1818182 L42.9302326,44.1818182 L37.9767442,44.1818182 Z" id="Stroke-45" stroke="#E7314E"></path><path d="M27.8525092,57.2727273 L27.8525092,52.3636364 L27.8525092,57.2727273 Z" id="Stroke-47" stroke="#E7314E"></path><path d="M27.8525092,34.3636364 L27.8525092,29.4545455 L27.8525092,34.3636364 Z" id="Stroke-49" stroke="#E7314E"></path><path d="M73.0769026,49.7281441 C69.5311326,53.2421338 63.7785369,53.2421338 60.2327669,49.7281441 C56.6869969,46.2141544 56.6869969,40.5131184 60.2327669,36.9991286 C63.7785369,33.4851389 69.5311326,33.4851389 73.0769026,36.9991286 C76.6226726,40.5131184 76.6226726,46.2141544 73.0769026,49.7281441 Z" id="Stroke-51" stroke="#00B5C2"></path><path d="M55.9222766,32.7272727 L59.2246022,36 L55.9222766,32.7272727 Z" id="Stroke-53" stroke="#00B5C2"></path><path d="M74.3023256,49.0909091 L77.6046512,52.3636364 L74.3023256,49.0909091 Z" id="Stroke-55" stroke="#00B5C2"></path><path d="M55.9222766,52.3636364 L59.2246022,49.0909091 L55.9222766,52.3636364 Z" id="Stroke-57" stroke="#00B5C2"></path><path d="M74.3023256,36 L77.6046512,32.7272727 L74.3023256,36 Z" id="Stroke-59" stroke="#00B5C2"></path></g></g></svg> 